<mxfile host="app.diagrams.net" modified="2024-03-13T08:56:46.935Z" agent="Mozilla/5.0 (Macintosh; Intel Mac OS X 10_15_7) AppleWebKit/537.36 (KHTML, like Gecko) Chrome/122.0.0.0 Safari/537.36" etag="cgWF6_tvsSG7_dHPvmXt" version="24.0.5" type="github">
  <diagram id="R2lEEEUBdFMjLlhIrx00" name="Page-1">
    <mxGraphModel dx="1434" dy="761" grid="1" gridSize="10" guides="1" tooltips="1" connect="1" arrows="1" fold="1" page="1" pageScale="1" pageWidth="850" pageHeight="1100" math="0" shadow="0" extFonts="Permanent Marker^https://fonts.googleapis.com/css?family=Permanent+Marker">
      <root>
        <mxCell id="0" />
        <mxCell id="1" parent="0" />
        <mxCell id="v6aNlpMOkfdC5qAsAmF2-1" value="PATIENT" style="whiteSpace=wrap;html=1;align=center;" vertex="1" parent="1">
          <mxGeometry x="610" y="220" width="100" height="40" as="geometry" />
        </mxCell>
        <mxCell id="v6aNlpMOkfdC5qAsAmF2-2" value="STAFF" style="whiteSpace=wrap;html=1;align=center;" vertex="1" parent="1">
          <mxGeometry x="140" y="220" width="100" height="40" as="geometry" />
        </mxCell>
        <mxCell id="v6aNlpMOkfdC5qAsAmF2-3" value="MEDICATION" style="whiteSpace=wrap;html=1;align=center;" vertex="1" parent="1">
          <mxGeometry x="120" y="400" width="100" height="40" as="geometry" />
        </mxCell>
        <mxCell id="v6aNlpMOkfdC5qAsAmF2-4" value="PROCEDURE" style="whiteSpace=wrap;html=1;align=center;" vertex="1" parent="1">
          <mxGeometry x="560" y="430" width="100" height="40" as="geometry" />
        </mxCell>
        <mxCell id="v6aNlpMOkfdC5qAsAmF2-5" value="WARD" style="whiteSpace=wrap;html=1;align=center;" vertex="1" parent="1">
          <mxGeometry x="375" y="50" width="100" height="40" as="geometry" />
        </mxCell>
      </root>
    </mxGraphModel>
  </diagram>
</mxfile>
